<?xml version="1.0" encoding="UTF-8"?>
<!DOCTYPE svg PUBLIC "-//W3C//DTD SVG 1.1//EN" "http://www.w3.org/Graphics/SVG/1.1/DTD/svg11.dtd">
<svg xmlns="http://www.w3.org/2000/svg" version="1.1" width="600px" height="600px" style="shape-rendering:geometricPrecision; text-rendering:geometricPrecision; image-rendering:optimizeQuality; fill-rule:evenodd; clip-rule:evenodd" xmlns:xlink="http://www.w3.org/1999/xlink">
<g><path style="opacity:1" fill="#e1e1e1" d="M -0.5,-0.5 C 199.5,-0.5 399.5,-0.5 599.5,-0.5C 599.5,199.5 599.5,399.5 599.5,599.5C 565.5,599.5 531.5,599.5 497.5,599.5C 497.435,596.572 496.768,593.905 495.5,591.5C 495.473,585.949 494.806,580.616 493.5,575.5C 493.706,572.505 493.04,569.838 491.5,567.5C 489.445,561.359 487.945,555.026 487,548.5C 482.813,540.118 479.146,531.451 476,522.5C 469.827,513.046 463.827,503.379 458,493.5C 452.307,485.652 446.141,478.318 439.5,471.5C 437.833,469.167 435.833,467.167 433.5,465.5C 432.833,464.833 432.167,464.167 431.5,463.5C 429.431,460.427 426.764,458.094 423.5,456.5C 391.288,429.849 353.955,414.516 311.5,410.5C 302.343,409.342 293.009,409.176 283.5,410C 281.942,410.21 280.609,410.71 279.5,411.5C 278.5,411.5 277.5,411.5 276.5,411.5C 271.972,411.77 267.639,412.437 263.5,413.5C 260.505,413.294 257.838,413.96 255.5,415.5C 234.701,419.642 215.701,427.642 198.5,439.5C 195.669,440.079 193.336,441.412 191.5,443.5C 161.622,463.367 138.956,489.367 123.5,521.5C 121.461,522.911 120.461,524.911 120.5,527.5C 116.352,534.258 113.352,541.591 111.5,549.5C 110.883,549.611 110.383,549.944 110,550.5C 108.489,557.207 106.989,563.874 105.5,570.5C 103.281,579.908 101.947,589.575 101.5,599.5C 67.5,599.5 33.5,599.5 -0.5,599.5C -0.5,399.5 -0.5,199.5 -0.5,-0.5 Z"/></g>
<g><path style="opacity:1" fill="#bbbbbb" d="M 319.5,105.5 C 306.167,105.5 292.833,105.5 279.5,105.5C 292.833,102.833 306.167,102.833 319.5,105.5 Z"/></g>
<g><path style="opacity:1" fill="#ababab" d="M 279.5,105.5 C 292.833,105.5 306.167,105.5 319.5,105.5C 324.642,106.647 329.975,107.48 335.5,108C 346.523,111.679 357.19,116.179 367.5,121.5C 367.953,122.458 368.619,123.292 369.5,124C 372.064,125.396 374.731,126.563 377.5,127.5C 380.785,131.276 384.785,134.11 389.5,136C 395.571,141.161 401.405,146.661 407,152.5C 414.883,162.951 421.716,173.951 427.5,185.5C 427.62,188.578 428.62,191.245 430.5,193.5C 450.947,253.209 438.614,305.043 393.5,349C 387.216,354.464 380.55,359.297 373.5,363.5C 371.251,364.08 369.585,365.413 368.5,367.5C 368.167,367.5 367.833,367.5 367.5,367.5C 364.563,368.472 361.897,369.805 359.5,371.5C 356.558,372.304 353.891,373.638 351.5,375.5C 346.177,377.159 340.844,378.826 335.5,380.5C 331.812,380.781 328.145,381.281 324.5,382C 323.944,382.383 323.611,382.883 323.5,383.5C 322.167,383.5 320.833,383.5 319.5,383.5C 308.86,384.375 298.194,384.709 287.5,384.5C 278.406,384.072 269.406,382.905 260.5,381C 251.181,377.168 241.848,373.335 232.5,369.5C 228.988,365.69 224.654,363.19 219.5,362C 214.496,357.336 209.163,353.003 203.5,349C 197.098,341.656 190.598,334.49 184,327.5C 182.116,322.742 179.449,318.408 176,314.5C 172.69,306.899 169.19,299.399 165.5,292C 158.871,271.003 156.705,249.503 159,227.5C 160.334,219.159 161.834,210.826 163.5,202.5C 165.834,200.824 166.834,198.491 166.5,195.5C 170.738,185.222 175.571,175.222 181,165.5C 182.694,164.301 184.194,162.968 185.5,161.5C 187.853,159.14 189.853,156.473 191.5,153.5C 191.5,152.167 192.167,151.5 193.5,151.5C 196.471,149.557 198.471,146.891 199.5,143.5C 210.009,135.186 221.009,127.353 232.5,120C 237.569,117.794 242.569,115.627 247.5,113.5C 249.898,113.741 251.898,113.074 253.5,111.5C 261.839,108.368 270.505,106.368 279.5,105.5 Z"/></g>
<g><path style="opacity:1" fill="#c0c0c0" d="M 253.5,111.5 C 251.898,113.074 249.898,113.741 247.5,113.5C 249.102,111.926 251.102,111.259 253.5,111.5 Z"/></g>
<g><path style="opacity:1" fill="#cecece" d="M 367.5,121.5 C 371.509,122.59 374.842,124.59 377.5,127.5C 374.731,126.563 372.064,125.396 369.5,124C 368.619,123.292 367.953,122.458 367.5,121.5 Z"/></g>
<g><path style="opacity:1" fill="#d2d2d2" d="M 199.5,143.5 C 198.471,146.891 196.471,149.557 193.5,151.5C 195.428,149.219 196.428,146.553 196.5,143.5C 197.5,143.5 198.5,143.5 199.5,143.5 Z"/></g>
<g><path style="opacity:1" fill="#c6c6c6" d="M 191.5,153.5 C 189.853,156.473 187.853,159.14 185.5,161.5C 186.41,157.935 188.41,155.268 191.5,153.5 Z"/></g>
<g><path style="opacity:1" fill="#c4c4c4" d="M 427.5,185.5 C 429.38,187.755 430.38,190.422 430.5,193.5C 428.62,191.245 427.62,188.578 427.5,185.5 Z"/></g>
<g><path style="opacity:1" fill="#c8c8c8" d="M 166.5,195.5 C 166.834,198.491 165.834,200.824 163.5,202.5C 163.707,199.759 164.707,197.426 166.5,195.5 Z"/></g>
<g><path style="opacity:1" fill="#c5c5c5" d="M 373.5,363.5 C 372.415,365.587 370.749,366.92 368.5,367.5C 369.585,365.413 371.251,364.08 373.5,363.5 Z"/></g>
<g><path style="opacity:1" fill="#c8c8c8" d="M 367.5,367.5 C 365.566,370.058 362.899,371.391 359.5,371.5C 361.897,369.805 364.563,368.472 367.5,367.5 Z"/></g>
<g><path style="opacity:1" fill="#cccccc" d="M 359.5,371.5 C 357.685,374.407 355.019,375.741 351.5,375.5C 353.891,373.638 356.558,372.304 359.5,371.5 Z"/></g>
<g><path style="opacity:1" fill="#bcbcbc" d="M 335.5,380.5 C 331.761,382.102 327.761,383.102 323.5,383.5C 323.611,382.883 323.944,382.383 324.5,382C 328.145,381.281 331.812,380.781 335.5,380.5 Z"/></g>
<g><path style="opacity:1" fill="#c3c3c3" d="M 319.5,383.5 C 318.737,384.268 317.737,384.768 316.5,385C 306.658,385.825 296.991,385.658 287.5,384.5C 298.194,384.709 308.86,384.375 319.5,383.5 Z"/></g>
<g><path style="opacity:1" fill="#cbcbcb" d="M 311.5,410.5 C 300.821,410.516 290.154,410.85 279.5,411.5C 280.609,410.71 281.942,410.21 283.5,410C 293.009,409.176 302.343,409.342 311.5,410.5 Z"/></g>
<g><path style="opacity:1" fill="#ababab" d="M 311.5,410.5 C 353.955,414.516 391.288,429.849 423.5,456.5C 425.569,459.573 428.236,461.906 431.5,463.5C 432.167,464.167 432.833,464.833 433.5,465.5C 434.5,468.5 436.5,470.5 439.5,471.5C 446.141,478.318 452.307,485.652 458,493.5C 463.827,503.379 469.827,513.046 476,522.5C 479.146,531.451 482.813,540.118 487,548.5C 487.945,555.026 489.445,561.359 491.5,567.5C 491.565,570.428 492.232,573.095 493.5,575.5C 494.806,580.616 495.473,585.949 495.5,591.5C 495.575,594.206 495.908,596.873 496.5,599.5C 364.833,599.5 233.167,599.5 101.5,599.5C 101.947,589.575 103.281,579.908 105.5,570.5C 106.772,567.05 108.438,563.717 110.5,560.5C 109.667,556.792 110.001,553.125 111.5,549.5C 113.352,541.591 116.352,534.258 120.5,527.5C 122.008,525.819 123.008,523.819 123.5,521.5C 138.956,489.367 161.622,463.367 191.5,443.5C 194.326,443.002 196.66,441.669 198.5,439.5C 215.701,427.642 234.701,419.642 255.5,415.5C 258.428,415.435 261.095,414.768 263.5,413.5C 267.514,413.666 271.514,413.499 275.5,413C 276.056,412.617 276.389,412.117 276.5,411.5C 277.5,411.5 278.5,411.5 279.5,411.5C 290.154,410.85 300.821,410.516 311.5,410.5 Z"/></g>
<g><path style="opacity:1" fill="#b9b9b9" d="M 276.5,411.5 C 276.389,412.117 276.056,412.617 275.5,413C 271.514,413.499 267.514,413.666 263.5,413.5C 267.639,412.437 271.972,411.77 276.5,411.5 Z"/></g>
<g><path style="opacity:1" fill="#c6c6c6" d="M 263.5,413.5 C 261.095,414.768 258.428,415.435 255.5,415.5C 257.838,413.96 260.505,413.294 263.5,413.5 Z"/></g>
<g><path style="opacity:1" fill="#bfbfbf" d="M 198.5,439.5 C 196.66,441.669 194.326,443.002 191.5,443.5C 193.336,441.412 195.669,440.079 198.5,439.5 Z"/></g>
<g><path style="opacity:1" fill="#cacaca" d="M 423.5,456.5 C 426.764,458.094 429.431,460.427 431.5,463.5C 428.236,461.906 425.569,459.573 423.5,456.5 Z"/></g>
<g><path style="opacity:1" fill="#c0c0c0" d="M 433.5,465.5 C 435.833,467.167 437.833,469.167 439.5,471.5C 436.5,470.5 434.5,468.5 433.5,465.5 Z"/></g>
<g><path style="opacity:1" fill="#c3c3c3" d="M 123.5,521.5 C 123.008,523.819 122.008,525.819 120.5,527.5C 120.461,524.911 121.461,522.911 123.5,521.5 Z"/></g>
<g><path style="opacity:1" fill="#bdbdbd" d="M 111.5,549.5 C 110.001,553.125 109.667,556.792 110.5,560.5C 108.438,563.717 106.772,567.05 105.5,570.5C 106.989,563.874 108.489,557.207 110,550.5C 110.383,549.944 110.883,549.611 111.5,549.5 Z"/></g>
<g><path style="opacity:1" fill="#c2c2c2" d="M 491.5,567.5 C 493.04,569.838 493.706,572.505 493.5,575.5C 492.232,573.095 491.565,570.428 491.5,567.5 Z"/></g>
<g><path style="opacity:1" fill="#c9c9c9" d="M 495.5,591.5 C 496.768,593.905 497.435,596.572 497.5,599.5C 497.167,599.5 496.833,599.5 496.5,599.5C 495.908,596.873 495.575,594.206 495.5,591.5 Z"/></g>
</svg>
